<?xml version="1.0" encoding="UTF-8"?>
<svg xmlns="http://www.w3.org/2000/svg" xmlns:xlink="http://www.w3.org/1999/xlink" width="600px" height="600px" viewBox="0 0 600 600" version="1.1">
<g id="surface1">
<path style=" stroke:none;fill-rule:nonzero;fill:rgb(98.823529%,0%,0%);fill-opacity:1;" d="M 443.457031 505.292969 C 402.726562 550.753906 346.1875 576.945312 288.265625 576.945312 C 272.917969 576.945312 257.574219 574.984375 242.6875 571.292969 C 201.613281 561.136719 166.535156 538.753906 138.265625 504.714844 C 137.34375 503.5625 59.113281 403.175781 131.6875 283.40625 C 135.613281 277.0625 139.996094 271.292969 143.457031 266.90625 C 175.074219 227.101562 205.996094 172.0625 189.148438 147.714844 C 186.472656 143.769531 186.519531 138.578125 189.265625 134.675781 C 191.917969 130.636719 196.878906 128.792969 201.496094 130.0625 C 205.996094 131.101562 240.84375 142.0625 248.34375 211.0625 C 255.957031 194.90625 262.648438 173.332031 261.035156 148.753906 C 258.613281 111.484375 238.1875 76.0625 200.226562 43.292969 C 196.132812 39.753906 195.074219 33.835938 197.6875 29.101562 C 200.226562 24.371094 205.878906 21.945312 210.957031 23.5625 C 213.613281 24.253906 460.1875 99.023438 422.804688 354.601562 C 437.226562 339.136719 453.265625 309.136719 449.34375 254.214844 C 448.996094 248.792969 452.34375 243.945312 457.417969 242.332031 C 462.613281 240.714844 468.148438 242.90625 470.804688 247.523438 C 471.613281 248.90625 549.496094 386.792969 443.457031 505.292969 Z M 443.457031 505.292969 "/>
</g>
</svg>
